<svg xmlns="http://www.w3.org/2000/svg" xmlns:xlink="http://www.w3.org/1999/xlink" width="220" zoomAndPan="magnify" viewBox="0 0 165 82.499998" height="110" preserveAspectRatio="xMidYMid meet" version="1.0"><defs><clipPath id="91a7c14e5e"><path d="M 0.496094 0 L 164.503906 0 L 164.503906 82.003906 L 0.496094 82.003906 Z M 0.496094 0 " clip-rule="nonzero"/></clipPath></defs><g clip-path="url(#91a7c14e5e)"><path fill="#ffffff" d="M 0.496094 0 L 164.503906 0 L 164.503906 82.003906 L 0.496094 82.003906 Z M 0.496094 0 " fill-opacity="1" fill-rule="nonzero"/><path fill="#ffffff" d="M 0.496094 0 L 164.503906 0 L 164.503906 82.003906 L 0.496094 82.003906 Z M 0.496094 0 " fill-opacity="1" fill-rule="nonzero"/></g><path fill="#0061d5" d="M 83.121094 34.601562 C 78.972656 34.601562 75.378906 36.933594 73.566406 40.351562 C 71.75 36.933594 68.144531 34.601562 63.996094 34.601562 C 61.5625 34.601562 59.320312 35.40625 57.503906 36.769531 L 57.503906 27.652344 C 57.480469 26.476562 56.519531 25.53125 55.335938 25.53125 C 54.152344 25.53125 53.207031 26.476562 53.179688 27.652344 L 53.179688 45.609375 C 53.28125 51.515625 58.085938 56.257812 63.996094 56.257812 C 68.144531 56.257812 71.75 53.921875 73.566406 50.503906 C 75.378906 53.921875 78.984375 56.257812 83.121094 56.257812 C 89.097656 56.257812 93.949219 51.414062 93.949219 45.421875 C 93.9375 39.445312 89.097656 34.601562 83.121094 34.601562 M 63.996094 51.917969 C 60.417969 51.917969 57.503906 49.015625 57.503906 45.421875 C 57.503906 41.839844 60.417969 38.925781 63.996094 38.925781 C 67.578125 38.925781 70.488281 41.828125 70.488281 45.421875 C 70.488281 49.015625 67.578125 51.917969 63.996094 51.917969 M 83.121094 51.917969 C 79.539062 51.917969 76.628906 49.015625 76.628906 45.421875 C 76.628906 41.839844 79.539062 38.925781 83.121094 38.925781 C 86.699219 38.925781 89.613281 41.828125 89.613281 45.421875 C 89.613281 49.015625 86.699219 51.917969 83.121094 51.917969 " fill-opacity="1" fill-rule="nonzero"/><path fill="#0061d5" d="M 110.726562 52.636719 L 104.839844 45.421875 L 110.726562 38.183594 C 111.472656 37.222656 111.257812 35.898438 110.238281 35.191406 C 109.203125 34.472656 107.765625 34.664062 106.972656 35.585938 L 101.902344 41.800781 L 96.835938 35.585938 C 96.042969 34.664062 94.59375 34.472656 93.570312 35.191406 C 92.550781 35.898438 92.335938 37.234375 93.078125 38.183594 L 98.953125 45.421875 L 93.078125 52.636719 C 92.335938 53.59375 92.550781 54.917969 93.570312 55.636719 C 94.59375 56.34375 96.054688 56.167969 96.835938 55.234375 L 101.902344 49.03125 L 106.960938 55.234375 C 107.753906 56.167969 109.203125 56.34375 110.222656 55.636719 C 111.269531 54.917969 111.484375 53.582031 110.726562 52.636719 " fill-opacity="1" fill-rule="nonzero"/></svg>