<svg xmlns="http://www.w3.org/2000/svg" xmlns:xlink="http://www.w3.org/1999/xlink" width="220" zoomAndPan="magnify" viewBox="0 0 165 82.499998" height="110" preserveAspectRatio="xMidYMid meet" version="1.0"><defs><clipPath id="6f7ca521b0"><path d="M 0.496094 0 L 164.503906 0 L 164.503906 82.003906 L 0.496094 82.003906 Z M 0.496094 0 " clip-rule="nonzero"/></clipPath><clipPath id="c038bb167a"><path d="M 45 26.980469 L 62 26.980469 L 62 49 L 45 49 Z M 45 26.980469 " clip-rule="nonzero"/></clipPath><clipPath id="3cf4ed1bfd"><path d="M 132 32 L 156.300781 32 L 156.300781 49 L 132 49 Z M 132 32 " clip-rule="nonzero"/></clipPath><clipPath id="f0e70c4e29"><path d="M 73 32 L 90 32 L 90 55.308594 L 73 55.308594 Z M 73 32 " clip-rule="nonzero"/></clipPath><clipPath id="46953f32ff"><path d="M 30 26.980469 L 42 26.980469 L 42 32 L 30 32 Z M 30 26.980469 " clip-rule="nonzero"/></clipPath><clipPath id="52b71917be"><path d="M 8.699219 35 L 42 35 L 42 40 L 8.699219 40 Z M 8.699219 35 " clip-rule="nonzero"/></clipPath></defs><g clip-path="url(#6f7ca521b0)"><path fill="#ffffff" d="M 0.496094 0 L 164.503906 0 L 164.503906 82.003906 L 0.496094 82.003906 Z M 0.496094 0 " fill-opacity="1" fill-rule="nonzero"/><path fill="#ffffff" d="M 0.496094 0 L 164.503906 0 L 164.503906 82.003906 L 0.496094 82.003906 Z M 0.496094 0 " fill-opacity="1" fill-rule="nonzero"/></g><g clip-path="url(#c038bb167a)"><path fill="#0076f8" d="M 53.832031 48.515625 C 51.992188 48.515625 50.359375 47.796875 49.171875 46.539062 L 49.171875 48.1875 L 45.40625 48.1875 L 45.40625 26.980469 L 49.351562 26.980469 L 49.351562 34.21875 C 50.507812 33.082031 52.078125 32.421875 53.832031 32.421875 C 57.835938 32.421875 61.097656 35.898438 61.097656 40.484375 C 61.097656 45.070312 57.835938 48.515625 53.832031 48.515625 Z M 53.265625 36.078125 C 51.101562 36.078125 49.351562 38.054688 49.351562 40.515625 C 49.351562 42.972656 51.101562 44.859375 53.265625 44.859375 C 55.433594 44.859375 57.183594 42.972656 57.183594 40.515625 C 57.183594 38.058594 55.433594 36.078125 53.265625 36.078125 Z M 53.265625 36.078125 " fill-opacity="1" fill-rule="nonzero"/></g><path fill="#0076f8" d="M 71.992188 36.289062 C 70.417969 36.105469 69.113281 36.289062 68.226562 37.246094 C 67.394531 38.117188 67.246094 39.375 67.246094 40.605469 L 67.246094 48.1875 L 63.328125 48.1875 L 63.328125 32.75 L 67.066406 32.75 L 67.066406 34.277344 C 68.3125 32.71875 70.152344 32.152344 71.992188 32.449219 Z M 71.992188 36.289062 " fill-opacity="1" fill-rule="nonzero"/><path fill="#0076f8" d="M 104.148438 48.1875 L 100.234375 48.1875 L 100.234375 39.164062 C 100.234375 38.265625 99.96875 36.105469 97.386719 36.105469 C 95.636719 36.105469 94.417969 37.425781 94.417969 39.164062 L 94.417969 48.1875 L 90.503906 48.1875 L 90.503906 32.75 L 94.242188 32.75 L 94.242188 34.25 C 95.21875 33.082031 96.554688 32.359375 98.1875 32.359375 C 101.777344 32.359375 104.148438 35.089844 104.148438 39.164062 Z M 104.148438 48.1875 " fill-opacity="1" fill-rule="nonzero"/><path fill="#0076f8" d="M 114.496094 48.15625 C 110.015625 48.636719 107.640625 45.910156 107.640625 41.683594 L 107.640625 36.257812 L 105.800781 36.257812 L 105.800781 32.75 L 107.640625 32.75 L 107.640625 28.824219 L 111.558594 28.824219 L 111.558594 32.75 L 114.316406 32.75 L 114.316406 36.257812 L 111.558594 36.257812 L 111.558594 41.714844 C 111.558594 43.871094 112.539062 44.679688 114.496094 44.5625 Z M 114.496094 48.15625 " fill-opacity="1" fill-rule="nonzero"/><path fill="#0076f8" d="M 130.175781 48.1875 L 126.4375 48.1875 L 126.4375 46.777344 C 125.488281 47.886719 124.152344 48.546875 122.550781 48.546875 C 118.929688 48.546875 116.527344 45.820312 116.527344 41.773438 L 116.527344 32.75 L 120.441406 32.75 L 120.441406 41.773438 C 120.441406 42.640625 120.738281 44.800781 123.292969 44.800781 C 125.042969 44.800781 126.257812 43.480469 126.257812 41.773438 L 126.257812 32.75 L 130.175781 32.75 Z M 130.175781 48.1875 " fill-opacity="1" fill-rule="nonzero"/><g clip-path="url(#3cf4ed1bfd)"><path fill="#0076f8" d="M 156.25 48.1875 L 152.335938 48.1875 L 152.335938 39.164062 C 152.335938 38.265625 152.039062 36.105469 149.488281 36.105469 C 147.734375 36.105469 146.519531 37.425781 146.519531 39.164062 L 146.519531 48.1875 L 142.574219 48.1875 L 142.574219 39.164062 C 142.574219 38.265625 142.308594 36.105469 139.726562 36.105469 C 138.003906 36.105469 136.789062 37.425781 136.789062 39.164062 L 136.789062 48.1875 L 132.84375 48.1875 L 132.84375 32.75 L 136.609375 32.75 L 136.609375 34.25 C 137.5625 33.082031 138.894531 32.359375 140.554688 32.359375 C 142.453125 32.359375 144.058594 33.167969 145.125 34.546875 C 146.222656 33.199219 147.824219 32.359375 149.78125 32.359375 C 153.878906 32.359375 156.25 35.117188 156.25 39.164062 Z M 156.25 48.1875 " fill-opacity="1" fill-rule="nonzero"/></g><g clip-path="url(#f0e70c4e29)"><path fill="#0076f8" d="M 84.855469 32.75 L 81.039062 43.371094 L 77.46875 32.75 L 73.316406 32.75 L 79.21875 48.441406 L 76.75 55.308594 L 80.699219 55.308594 L 89.039062 32.75 Z M 84.855469 32.75 " fill-opacity="1" fill-rule="nonzero"/></g><g clip-path="url(#46953f32ff)"><path fill="#0076f8" d="M 30.582031 26.980469 L 41.5 26.980469 L 41.5 31.417969 L 30.582031 31.417969 Z M 30.582031 26.980469 " fill-opacity="1" fill-rule="nonzero"/></g><g clip-path="url(#52b71917be)"><path fill="#0076f8" d="M 8.75 35.363281 L 41.5 35.363281 L 41.5 39.800781 L 8.75 39.800781 Z M 8.75 35.363281 " fill-opacity="1" fill-rule="nonzero"/></g><path fill="#0076f8" d="M 19.664062 43.75 L 41.5 43.75 L 41.5 48.160156 L 19.664062 48.160156 Z M 19.664062 43.75 " fill-opacity="1" fill-rule="nonzero"/></svg>