<svg xmlns="http://www.w3.org/2000/svg" xmlns:xlink="http://www.w3.org/1999/xlink" width="220" zoomAndPan="magnify" viewBox="0 0 165 82.499998" height="110" preserveAspectRatio="xMidYMid meet" version="1.0"><defs><clipPath id="id1"><path d="M 0.496094 0 L 164.503906 0 L 164.503906 82.003906 L 0.496094 82.003906 Z M 0.496094 0 " clip-rule="nonzero"/></clipPath><clipPath id="id2"><path d="M 9.382812 31.609375 L 26 31.609375 L 26 50 L 9.382812 50 Z M 9.382812 31.609375 " clip-rule="nonzero"/></clipPath><clipPath id="id3"><path d="M 88 31.609375 L 103 31.609375 L 103 50 L 88 50 Z M 88 31.609375 " clip-rule="nonzero"/></clipPath><clipPath id="id4"><path d="M 154 48 L 155.617188 48 L 155.617188 50 L 154 50 Z M 154 48 " clip-rule="nonzero"/></clipPath></defs><g clip-path="url(#id1)"><path fill="#ffffff" d="M 0.496094 0 L 164.503906 0 L 164.503906 89.457031 L 0.496094 89.457031 Z M 0.496094 0 " fill-opacity="1" fill-rule="nonzero"/><path fill="#ffffff" d="M 0.496094 0 L 164.503906 0 L 164.503906 82.003906 L 0.496094 82.003906 Z M 0.496094 0 " fill-opacity="1" fill-rule="nonzero"/><path fill="#ffffff" d="M 0.496094 0 L 164.503906 0 L 164.503906 82.003906 L 0.496094 82.003906 Z M 0.496094 0 " fill-opacity="1" fill-rule="nonzero"/><path fill="#ffffff" d="M 0.496094 0 L 164.503906 0 L 164.503906 82.003906 L 0.496094 82.003906 Z M 0.496094 0 " fill-opacity="1" fill-rule="nonzero"/></g><g clip-path="url(#id2)"><path fill="#002158" d="M 21.605469 37.761719 C 21.3125 36.078125 19.734375 34.800781 17.863281 34.800781 C 14.46875 34.800781 13.183594 37.648438 13.183594 40.664062 C 13.183594 43.683594 14.46875 46.355469 17.863281 46.355469 C 20.203125 46.355469 21.488281 44.789062 21.78125 42.523438 L 25.410156 42.523438 C 25 46.820312 22.074219 49.492188 17.863281 49.492188 C 12.539062 49.492188 9.382812 45.542969 9.382812 40.609375 C 9.382812 35.671875 12.539062 31.609375 17.804688 31.609375 C 21.546875 31.609375 24.765625 33.816406 25.234375 37.761719 Z M 21.605469 37.761719 " fill-opacity="1" fill-rule="nonzero"/></g><path fill="#002158" d="M 29.679688 43.742188 C 29.796875 45.890625 30.789062 46.878906 32.722656 46.878906 C 34.066406 46.878906 35.175781 46.066406 35.410156 45.253906 L 38.394531 45.253906 C 37.402344 48.214844 35.410156 49.433594 32.546875 49.433594 C 28.625 49.433594 26.167969 46.761719 26.167969 42.929688 C 26.167969 39.097656 28.859375 36.371094 32.605469 36.371094 C 36.816406 36.371094 38.921875 39.910156 38.628906 43.683594 L 29.679688 43.683594 Z M 35.234375 41.59375 C 34.945312 39.851562 34.183594 38.980469 32.488281 38.980469 C 30.265625 38.980469 29.738281 40.664062 29.679688 41.59375 Z M 35.234375 41.59375 " fill-opacity="1" fill-rule="nonzero"/><path fill="#002158" d="M 39.796875 36.71875 L 43.015625 36.71875 L 43.015625 38.460938 L 43.074219 38.460938 C 43.953125 37.066406 45.414062 36.425781 46.875 36.425781 C 50.503906 36.425781 51.4375 38.460938 51.4375 41.535156 L 51.4375 49.140625 L 48.046875 49.140625 L 48.046875 42.058594 C 48.046875 40.027344 47.460938 39.039062 45.882812 39.039062 C 44.011719 39.039062 43.25 40.085938 43.25 42.582031 L 43.25 49.027344 L 39.796875 49.027344 Z M 39.796875 36.71875 " fill-opacity="1" fill-rule="nonzero"/><path fill="#002158" d="M 57.40625 36.71875 L 59.921875 36.71875 L 59.921875 38.980469 L 57.40625 38.980469 L 57.40625 45.078125 C 57.40625 46.238281 57.699219 46.53125 58.867188 46.53125 C 59.277344 46.53125 59.628906 46.53125 59.921875 46.414062 L 59.921875 49.085938 C 59.335938 49.199219 58.574219 49.199219 57.933594 49.199219 C 55.828125 49.199219 54.011719 48.734375 54.011719 46.238281 L 54.011719 38.980469 L 51.964844 38.980469 L 51.964844 36.71875 L 54.011719 36.71875 L 54.011719 33 L 57.40625 33 Z M 57.40625 36.71875 " fill-opacity="1" fill-rule="nonzero"/><path fill="#002158" d="M 60.855469 36.71875 L 64.132812 36.71875 L 64.132812 38.980469 L 64.191406 38.980469 C 64.835938 37.414062 66.472656 36.371094 68.167969 36.371094 C 68.402344 36.371094 68.695312 36.425781 68.929688 36.484375 L 68.929688 39.621094 C 68.636719 39.5625 68.109375 39.503906 67.699219 39.503906 C 65.183594 39.503906 64.308594 41.246094 64.308594 43.453125 L 64.308594 49.027344 L 60.855469 49.027344 Z M 60.855469 36.71875 " fill-opacity="1" fill-rule="nonzero"/><path fill="#002158" d="M 69.28125 40.550781 C 69.457031 37.414062 72.320312 36.425781 75.128906 36.425781 C 77.585938 36.425781 80.570312 36.949219 80.570312 39.96875 L 80.570312 46.414062 C 80.570312 47.515625 80.6875 48.679688 80.980469 49.140625 L 77.527344 49.140625 C 77.410156 48.734375 77.292969 48.328125 77.292969 47.921875 C 76.242188 49.027344 74.660156 49.433594 73.082031 49.433594 C 70.683594 49.433594 68.871094 48.269531 68.871094 45.71875 C 68.929688 40.085938 77.292969 43.105469 77.175781 40.316406 C 77.175781 38.867188 76.183594 38.632812 74.953125 38.632812 C 73.609375 38.632812 72.789062 39.15625 72.671875 40.492188 Z M 77.175781 43.046875 C 76.59375 43.570312 75.421875 43.570312 74.371094 43.742188 C 73.316406 43.917969 72.320312 44.324219 72.320312 45.542969 C 72.320312 46.761719 73.316406 47.109375 74.425781 47.109375 C 77.117188 47.109375 77.175781 45.019531 77.175781 44.265625 C 77.175781 44.265625 77.175781 43.046875 77.175781 43.046875 Z M 77.175781 43.046875 " fill-opacity="1" fill-rule="nonzero"/><path fill="#002158" d="M 82.617188 32.015625 L 86.007812 32.015625 L 86.007812 49.085938 L 82.617188 49.085938 Z M 82.617188 32.015625 " fill-opacity="1" fill-rule="nonzero"/><path fill="#00c4b3" d="M 137.484375 41.070312 C 137.25 39.679688 136.433594 38.925781 134.96875 38.925781 C 132.804688 38.925781 132.046875 41.128906 132.046875 42.929688 C 132.046875 44.730469 132.746094 46.820312 134.910156 46.820312 C 136.550781 46.820312 137.425781 45.832031 137.601562 44.324219 L 140.878906 44.324219 C 140.410156 47.574219 138.1875 49.375 134.910156 49.375 C 131.167969 49.375 128.652344 46.761719 128.652344 43.046875 C 128.652344 39.332031 130.933594 36.371094 135.027344 36.371094 C 137.953125 36.371094 140.703125 37.878906 140.878906 41.070312 Z M 137.484375 41.070312 " fill-opacity="1" fill-rule="nonzero"/><g clip-path="url(#id3)"><path fill="#00c4b3" d="M 91.917969 49.085938 L 91.917969 38.109375 C 91.917969 36.078125 92.855469 34.859375 94.257812 34.859375 C 95.484375 34.859375 96.363281 35.960938 96.304688 37.125 C 97.648438 37.125 98.585938 38.054688 98.585938 39.15625 C 98.585938 40.257812 97.476562 41.535156 94.960938 41.535156 L 93.027344 41.535156 L 98 49.140625 L 102.386719 49.140625 L 98.410156 43.453125 C 99.582031 43.21875 102.269531 42.292969 102.269531 39.097656 C 102.269531 36.777344 100.457031 34.917969 98.527344 34.742188 C 98.117188 33.058594 96.421875 31.722656 94.023438 31.722656 C 90.046875 31.722656 88.234375 34.394531 88.234375 37.996094 L 88.234375 49.199219 L 91.917969 49.199219 Z M 91.917969 49.085938 " fill-opacity="1" fill-rule="nonzero"/></g><path fill="#00c4b3" d="M 106.074219 43.742188 C 106.191406 45.890625 107.183594 46.878906 109.113281 46.878906 C 110.519531 46.878906 111.570312 46.066406 111.804688 45.253906 L 114.789062 45.253906 C 113.851562 48.214844 111.804688 49.433594 108.941406 49.433594 C 105.019531 49.433594 102.5625 46.761719 102.5625 42.929688 C 102.5625 39.097656 105.136719 36.425781 108.941406 36.425781 C 113.152344 36.425781 115.257812 39.96875 114.964844 43.742188 Z M 111.628906 41.59375 C 111.339844 39.851562 110.578125 38.980469 108.941406 38.980469 C 106.71875 38.980469 106.191406 40.664062 106.074219 41.59375 Z M 111.628906 41.59375 " fill-opacity="1" fill-rule="nonzero"/><path fill="#00c4b3" d="M 116.074219 40.550781 C 116.25 37.414062 119.117188 36.425781 121.925781 36.425781 C 124.382812 36.425781 127.367188 36.949219 127.367188 39.96875 L 127.367188 46.414062 C 127.367188 47.515625 127.484375 48.679688 127.773438 49.140625 L 124.324219 49.140625 C 124.207031 48.734375 124.089844 48.328125 124.089844 47.921875 C 122.976562 49.027344 121.457031 49.433594 119.878906 49.433594 C 117.480469 49.433594 115.667969 48.269531 115.667969 45.71875 C 115.726562 40.085938 124.089844 43.105469 123.914062 40.316406 C 123.914062 38.867188 122.917969 38.632812 121.691406 38.632812 C 120.347656 38.632812 119.527344 39.15625 119.410156 40.492188 Z M 123.972656 43.046875 C 123.386719 43.570312 122.21875 43.570312 121.105469 43.742188 C 119.996094 43.917969 119.058594 44.324219 119.058594 45.542969 C 119.058594 46.761719 120.054688 47.109375 121.164062 47.109375 C 123.855469 47.109375 123.914062 45.019531 123.914062 44.265625 Z M 123.972656 43.046875 " fill-opacity="1" fill-rule="nonzero"/><path fill="#00c4b3" d="M 141.8125 32.015625 L 145.207031 32.015625 L 145.207031 38.460938 L 145.265625 38.460938 C 146.140625 37.066406 147.605469 36.425781 148.890625 36.425781 C 152.519531 36.425781 153.453125 38.460938 153.453125 41.535156 L 153.453125 49.140625 L 150.0625 49.140625 L 150.0625 42.175781 C 150.0625 40.144531 149.476562 39.15625 147.898438 39.15625 C 146.023438 39.15625 145.265625 40.203125 145.265625 42.699219 L 145.265625 49.140625 L 141.871094 49.140625 L 141.871094 32.015625 Z M 141.8125 32.015625 " fill-opacity="1" fill-rule="nonzero"/><g clip-path="url(#id4)"><path fill="#00c4b3" d="M 154.214844 48.679688 L 154.214844 48.621094 L 154.625 48.621094 L 154.625 48.679688 Z M 154.390625 49.085938 L 154.390625 48.621094 L 154.507812 48.621094 L 154.507812 49.085938 Z M 154.742188 49.085938 L 154.742188 48.5625 L 154.859375 48.5625 L 154.859375 49.085938 Z M 154.976562 49.085938 L 154.742188 48.5625 L 154.859375 48.5625 L 155.035156 48.910156 L 155.210938 48.5625 L 155.324219 48.5625 Z M 155.152344 49.085938 L 155.152344 48.5625 L 155.265625 48.5625 L 155.265625 49.085938 Z M 155.152344 49.085938 " fill-opacity="1" fill-rule="nonzero"/></g></svg>