<svg xmlns="http://www.w3.org/2000/svg" xmlns:xlink="http://www.w3.org/1999/xlink" width="220" zoomAndPan="magnify" viewBox="0 0 165 82.499998" height="110" preserveAspectRatio="xMidYMid meet" version="1.0"><defs><clipPath id="227142482c"><path d="M 0.496094 0 L 164.503906 0 L 164.503906 82.003906 L 0.496094 82.003906 Z M 0.496094 0 " clip-rule="nonzero"/></clipPath><clipPath id="673c82de95"><path d="M 10.566406 22.777344 L 34.339844 22.777344 L 34.339844 58.835938 L 10.566406 58.835938 Z M 10.566406 22.777344 " clip-rule="nonzero"/></clipPath><clipPath id="19d1c522cf"><path d="M 34.246094 22.828125 L 10.617188 49.160156 L 10.617188 58.75 L 34.246094 32.398438 Z M 34.246094 22.828125 " clip-rule="nonzero"/></clipPath><clipPath id="28eb8f39be"><path d="M 34.605469 37.199219 L 41 37.199219 L 41 59.238281 L 34.605469 59.238281 Z M 34.605469 37.199219 " clip-rule="nonzero"/></clipPath><clipPath id="b4a883bef6"><path d="M 34.71875 44.191406 L 34.71875 59.175781 L 34.722656 59.175781 L 40.96875 52.277344 L 40.96875 37.304688 Z M 34.71875 44.191406 " clip-rule="nonzero"/></clipPath><clipPath id="2e19c7f362"><path d="M 13.640625 52.15625 L 41 52.15625 L 41 59.238281 L 13.640625 59.238281 Z M 13.640625 52.15625 " clip-rule="nonzero"/></clipPath><clipPath id="c105133ffc"><path d="M 19.792969 52.277344 L 13.640625 59.175781 L 34.71875 59.175781 L 40.96875 52.277344 Z M 19.792969 52.277344 " clip-rule="nonzero"/></clipPath><clipPath id="1a5fac8b28"><path d="M 46.878906 37.328125 L 51.269531 37.328125 L 51.269531 52.347656 L 46.878906 52.347656 Z M 46.878906 37.328125 " clip-rule="nonzero"/></clipPath><clipPath id="d6b6767326"><path d="M 47.34375 42.25 L 50.859375 42.25 L 50.859375 52.285156 L 47.34375 52.285156 Z M 47.546875 40.605469 C 47.148438 40.246094 46.953125 39.804688 46.953125 39.273438 C 46.953125 38.746094 47.148438 38.296875 47.546875 37.941406 C 47.941406 37.585938 48.460938 37.402344 49.101562 37.402344 C 49.742188 37.402344 50.261719 37.574219 50.65625 37.914062 C 51.054688 38.257812 51.25 38.691406 51.25 39.21875 C 51.25 39.773438 51.054688 40.234375 50.65625 40.601562 C 50.261719 40.964844 49.742188 41.144531 49.101562 41.144531 C 48.460938 41.144531 47.941406 40.964844 47.546875 40.609375 " clip-rule="nonzero"/></clipPath><clipPath id="aa301c388c"><path d="M 54 42.070312 L 64.792969 42.070312 L 64.792969 52.347656 L 54 52.347656 Z M 54 42.070312 " clip-rule="nonzero"/></clipPath><clipPath id="358178d24f"><path d="M 63.605469 43.195312 C 64.367188 43.9375 64.746094 45.050781 64.746094 46.546875 L 64.746094 52.285156 L 61.226562 52.285156 L 61.226562 47.121094 C 61.226562 45.75 60.675781 45.066406 59.578125 45.066406 C 58.972656 45.066406 58.488281 45.261719 58.125 45.660156 C 57.765625 46.054688 57.578125 46.648438 57.578125 47.4375 L 57.578125 52.285156 L 54.0625 52.285156 L 54.0625 42.253906 L 57.410156 42.253906 L 57.410156 43.347656 C 57.804688 42.9375 58.273438 42.628906 58.816406 42.414062 C 59.359375 42.199219 59.953125 42.089844 60.59375 42.089844 C 61.839844 42.089844 62.84375 42.460938 63.601562 43.199219 " clip-rule="nonzero"/></clipPath><clipPath id="c0901bea76"><path d="M 67.429688 38.46875 L 78.757812 38.46875 L 78.757812 52.519531 L 67.429688 52.519531 Z M 67.429688 38.46875 " clip-rule="nonzero"/></clipPath><clipPath id="fbed90c011"><path d="M 74.628906 49.019531 C 75.023438 48.59375 75.21875 48.007812 75.21875 47.253906 C 75.21875 46.511719 75.023438 45.933594 74.636719 45.511719 C 74.25 45.09375 73.746094 44.882812 73.125 44.882812 C 72.507812 44.882812 72.003906 45.09375 71.609375 45.511719 C 71.214844 45.933594 71.019531 46.511719 71.019531 47.253906 C 71.019531 48.007812 71.214844 48.59375 71.609375 49.019531 C 72.003906 49.445312 72.507812 49.660156 73.125 49.660156 C 73.730469 49.660156 74.234375 49.441406 74.625 49.019531 M 78.6875 38.550781 L 78.6875 52.285156 L 75.332031 52.285156 L 75.332031 51.289062 C 74.679688 52.0625 73.695312 52.457031 72.390625 52.457031 C 71.476562 52.457031 70.640625 52.242188 69.886719 51.816406 C 69.136719 51.390625 68.539062 50.785156 68.101562 49.992188 C 67.664062 49.203125 67.445312 48.289062 67.445312 47.253906 C 67.445312 46.214844 67.664062 45.304688 68.101562 44.523438 C 68.539062 43.738281 69.136719 43.136719 69.886719 42.714844 C 70.640625 42.296875 71.476562 42.085938 72.390625 42.085938 C 73.589844 42.085938 74.511719 42.433594 75.167969 43.125 L 75.167969 38.550781 Z M 78.6875 38.550781 " clip-rule="nonzero"/></clipPath><clipPath id="bf402e9d76"><path d="M 81.394531 37.328125 L 85.785156 37.328125 L 85.785156 52.347656 L 81.394531 52.347656 Z M 81.394531 37.328125 " clip-rule="nonzero"/></clipPath><clipPath id="5034f9743f"><path d="M 81.867188 42.25 L 85.386719 42.25 L 85.386719 52.285156 L 81.867188 52.285156 Z M 82.070312 40.605469 C 81.675781 40.246094 81.480469 39.800781 81.480469 39.269531 C 81.480469 38.742188 81.675781 38.292969 82.070312 37.9375 C 82.464844 37.582031 82.984375 37.402344 83.625 37.402344 C 84.269531 37.402344 84.785156 37.574219 85.183594 37.914062 C 85.578125 38.257812 85.773438 38.691406 85.773438 39.21875 C 85.773438 39.773438 85.578125 40.234375 85.183594 40.601562 C 84.785156 40.964844 84.269531 41.144531 83.625 41.144531 C 82.984375 41.144531 82.464844 40.964844 82.070312 40.609375 " clip-rule="nonzero"/></clipPath><clipPath id="50acd2cbc1"><path d="M 87.894531 42.070312 L 99.398438 42.070312 L 99.398438 56.121094 L 87.894531 56.121094 Z M 87.894531 42.070312 " clip-rule="nonzero"/></clipPath><clipPath id="a33aa6c327"><path d="M 95.28125 48.398438 C 95.695312 48.015625 95.902344 47.523438 95.902344 46.914062 C 95.902344 46.308594 95.699219 45.820312 95.292969 45.445312 C 94.886719 45.066406 94.359375 44.878906 93.71875 44.878906 C 93.078125 44.878906 92.550781 45.066406 92.136719 45.445312 C 91.71875 45.820312 91.511719 46.3125 91.511719 46.914062 C 91.511719 47.519531 91.722656 48.015625 92.144531 48.398438 C 92.5625 48.78125 93.089844 48.972656 93.71875 48.972656 C 94.347656 48.972656 94.867188 48.777344 95.28125 48.398438 M 99.382812 42.25 L 99.382812 50.453125 C 99.382812 52.316406 98.878906 53.714844 97.867188 54.648438 C 96.855469 55.582031 95.398438 56.046875 93.5 56.046875 C 92.511719 56.046875 91.585938 55.9375 90.722656 55.710938 C 89.855469 55.488281 89.125 55.164062 88.519531 54.734375 L 89.796875 52.269531 C 90.203125 52.605469 90.71875 52.867188 91.339844 53.058594 C 91.960938 53.25 92.578125 53.347656 93.179688 53.347656 C 94.105469 53.347656 94.785156 53.144531 95.214844 52.734375 C 95.648438 52.328125 95.867188 51.726562 95.867188 50.921875 L 95.867188 50.589844 C 95.1875 51.378906 94.195312 51.769531 92.882812 51.769531 C 91.996094 51.769531 91.175781 51.570312 90.421875 51.167969 C 89.667969 50.765625 89.070312 50.199219 88.628906 49.464844 C 88.1875 48.734375 87.960938 47.882812 87.960938 46.917969 C 87.960938 45.96875 88.183594 45.125 88.628906 44.390625 C 89.074219 43.65625 89.667969 43.089844 90.421875 42.691406 C 91.175781 42.289062 91.996094 42.085938 92.882812 42.085938 C 94.316406 42.085938 95.367188 42.550781 96.03125 43.472656 L 96.03125 42.253906 Z M 99.382812 42.25 " clip-rule="nonzero"/></clipPath><clipPath id="ede4878048"><path d="M 101.859375 42.070312 L 113.273438 42.070312 L 113.273438 52.519531 L 101.859375 52.519531 Z M 101.859375 42.070312 " clip-rule="nonzero"/></clipPath><clipPath id="25fcc0fb12"><path d="M 109.121094 49.019531 C 109.515625 48.59375 109.710938 48.007812 109.710938 47.253906 C 109.710938 46.511719 109.515625 45.933594 109.121094 45.511719 C 108.722656 45.09375 108.214844 44.882812 107.601562 44.882812 C 106.988281 44.882812 106.480469 45.09375 106.085938 45.511719 C 105.6875 45.933594 105.492188 46.511719 105.492188 47.253906 C 105.492188 48.007812 105.6875 48.59375 106.085938 49.019531 C 106.480469 49.445312 106.984375 49.660156 107.601562 49.660156 C 108.21875 49.660156 108.722656 49.441406 109.121094 49.019531 M 104.695312 51.785156 C 103.828125 51.339844 103.152344 50.726562 102.664062 49.933594 C 102.175781 49.144531 101.933594 48.25 101.933594 47.25 C 101.933594 46.261719 102.175781 45.375 102.664062 44.582031 C 103.152344 43.792969 103.824219 43.179688 104.683594 42.742188 C 105.539062 42.304688 106.511719 42.085938 107.597656 42.085938 C 108.683594 42.085938 109.65625 42.304688 110.519531 42.742188 C 111.386719 43.179688 112.058594 43.792969 112.539062 44.574219 C 113.019531 45.359375 113.261719 46.25 113.261719 47.25 C 113.261719 48.25 113.019531 49.144531 112.539062 49.933594 C 112.058594 50.726562 111.386719 51.339844 110.519531 51.785156 C 109.65625 52.230469 108.679688 52.453125 107.597656 52.453125 C 106.523438 52.453125 105.554688 52.226562 104.691406 51.785156 " clip-rule="nonzero"/></clipPath><clipPath id="5f949c9c53"><path d="M 116.523438 38.550781 L 117.835938 38.550781 L 117.835938 52.285156 L 116.523438 52.285156 Z M 116.523438 38.550781 " clip-rule="nonzero"/></clipPath><clipPath id="92e272e814"><path d="M 121.53125 42.421875 L 129.785156 42.421875 L 129.785156 52.433594 L 121.53125 52.433594 Z M 121.53125 42.421875 " clip-rule="nonzero"/></clipPath><clipPath id="01ceb66280"><path d="M 127.277344 50.832031 C 127.808594 50.496094 128.203125 50.003906 128.460938 49.363281 L 128.460938 47.773438 L 125.40625 47.773438 C 123.742188 47.773438 122.90625 48.351562 122.90625 49.511719 C 122.90625 50.082031 123.121094 50.527344 123.554688 50.851562 C 123.992188 51.179688 124.59375 51.34375 125.371094 51.34375 C 126.109375 51.34375 126.746094 51.175781 127.273438 50.835938 M 128.753906 43.429688 C 129.433594 44.066406 129.773438 45.007812 129.773438 46.253906 L 129.773438 52.285156 L 128.511719 52.285156 L 128.511719 50.769531 C 128.214844 51.277344 127.78125 51.671875 127.207031 51.953125 C 126.628906 52.230469 125.949219 52.378906 125.160156 52.378906 C 124.074219 52.378906 123.210938 52.121094 122.570312 51.601562 C 121.925781 51.082031 121.605469 50.398438 121.605469 49.546875 C 121.605469 48.722656 121.902344 48.050781 122.503906 47.550781 C 123.101562 47.046875 124.054688 46.789062 125.367188 46.789062 L 128.457031 46.789062 L 128.457031 46.195312 C 128.457031 45.359375 128.222656 44.71875 127.753906 44.28125 C 127.285156 43.84375 126.597656 43.625 125.699219 43.625 C 125.082031 43.625 124.488281 43.722656 123.921875 43.925781 C 123.351562 44.128906 122.863281 44.410156 122.457031 44.769531 L 121.867188 43.789062 C 122.359375 43.371094 122.953125 43.042969 123.644531 42.816406 C 124.335938 42.589844 125.0625 42.472656 125.832031 42.472656 C 127.101562 42.472656 128.078125 42.792969 128.753906 43.425781 " clip-rule="nonzero"/></clipPath><clipPath id="7e3d693824"><path d="M 134.21875 38.496094 L 144.160156 38.496094 L 144.160156 52.4375 L 134.21875 52.4375 Z M 134.21875 38.496094 " clip-rule="nonzero"/></clipPath><clipPath id="9fe8f30f2f"><path d="M 141.054688 50.742188 C 141.609375 50.425781 142.046875 49.980469 142.359375 49.402344 C 142.675781 48.820312 142.832031 48.160156 142.832031 47.417969 C 142.832031 46.675781 142.675781 46.015625 142.359375 45.4375 C 142.046875 44.855469 141.609375 44.410156 141.054688 44.09375 C 140.496094 43.78125 139.882812 43.621094 139.203125 43.621094 C 138.511719 43.621094 137.890625 43.78125 137.34375 44.09375 C 136.792969 44.410156 136.363281 44.855469 136.046875 45.4375 C 135.734375 46.015625 135.574219 46.675781 135.574219 47.417969 C 135.574219 48.160156 135.734375 48.820312 136.046875 49.402344 C 136.363281 49.980469 136.792969 50.429688 137.34375 50.742188 C 137.890625 51.050781 138.511719 51.214844 139.203125 51.214844 C 139.882812 51.214844 140.496094 51.054688 141.054688 50.742188 M 141.777344 43.097656 C 142.515625 43.511719 143.097656 44.089844 143.515625 44.84375 C 143.933594 45.597656 144.144531 46.453125 144.144531 47.417969 C 144.144531 48.382812 143.933594 49.238281 143.515625 49.992188 C 143.097656 50.746094 142.515625 51.332031 141.777344 51.75 C 141.035156 52.171875 140.207031 52.382812 139.292969 52.382812 C 138.480469 52.382812 137.75 52.207031 137.101562 51.863281 C 136.453125 51.515625 135.933594 51.019531 135.539062 50.363281 L 135.539062 52.289062 L 134.277344 52.289062 L 134.277344 38.550781 L 135.589844 38.550781 L 135.589844 44.402344 C 136 43.773438 136.519531 43.296875 137.15625 42.964844 C 137.789062 42.636719 138.503906 42.472656 139.292969 42.472656 C 140.207031 42.472656 141.035156 42.679688 141.777344 43.09375 " clip-rule="nonzero"/></clipPath><clipPath id="a416a5b95f"><path d="M 146.367188 42.429688 L 154.445312 42.429688 L 154.445312 52.4375 L 146.367188 52.4375 Z M 146.367188 42.429688 " clip-rule="nonzero"/></clipPath><clipPath id="208105075e"><path d="M 148.09375 52.039062 C 147.375 51.8125 146.808594 51.523438 146.402344 51.179688 L 146.992188 50.140625 C 147.398438 50.460938 147.910156 50.726562 148.53125 50.929688 C 149.148438 51.132812 149.789062 51.238281 150.453125 51.238281 C 151.34375 51.238281 152 51.097656 152.425781 50.820312 C 152.851562 50.546875 153.0625 50.152344 153.0625 49.644531 C 153.0625 49.289062 152.949219 49.007812 152.714844 48.804688 L 151.824219 48.34375 C 151.46875 48.242188 150.992188 48.136719 150.402344 48.035156 C 149.609375 47.890625 148.976562 47.738281 148.496094 47.582031 C 148.015625 47.429688 147.605469 47.167969 147.265625 46.796875 C 146.929688 46.421875 146.753906 45.914062 146.753906 45.257812 C 146.753906 44.445312 147.09375 43.777344 147.773438 43.261719 C 148.453125 42.746094 149.394531 42.484375 150.605469 42.484375 L 152.496094 42.734375 C 153.125 42.898438 153.644531 43.121094 154.050781 43.390625 L 153.476562 44.449219 C 152.675781 43.890625 151.71875 43.613281 150.609375 43.613281 C 149.769531 43.613281 149.136719 43.765625 148.710938 44.058594 C 148.285156 44.355469 148.070312 44.738281 148.070312 45.21875 C 148.070312 45.585938 148.1875 45.886719 148.429688 46.105469 L 149.328125 46.597656 C 149.6875 46.699219 150.183594 46.808594 150.8125 46.917969 C 151.585938 47.070312 152.214844 47.214844 152.683594 47.363281 C 153.152344 47.515625 153.550781 47.765625 153.886719 48.125 C 154.21875 48.484375 154.382812 48.976562 154.382812 49.605469 C 154.382812 50.457031 154.03125 51.132812 153.320312 51.632812 C 152.609375 52.132812 151.621094 52.382812 150.367188 52.382812 C 149.574219 52.382812 148.820312 52.265625 148.097656 52.039062 " clip-rule="nonzero"/></clipPath></defs><g clip-path="url(#227142482c)"><path fill="#ffffff" d="M 0.496094 0 L 164.503906 0 L 164.503906 82.003906 L 0.496094 82.003906 Z M 0.496094 0 " fill-opacity="1" fill-rule="nonzero"/></g><g clip-path="url(#673c82de95)"><g clip-path="url(#19d1c522cf)"><path fill="#f04c5f" d="M 8.699219 20.90625 L 42.886719 20.90625 L 42.886719 61.105469 L 8.699219 61.105469 Z M 8.699219 20.90625 " fill-opacity="1" fill-rule="nonzero"/></g></g><g clip-path="url(#28eb8f39be)"><g clip-path="url(#b4a883bef6)"><path fill="#f26a60" d="M 8.699219 20.90625 L 42.886719 20.90625 L 42.886719 61.105469 L 8.699219 61.105469 Z M 8.699219 20.90625 " fill-opacity="1" fill-rule="nonzero"/></g></g><g clip-path="url(#2e19c7f362)"><g clip-path="url(#c105133ffc)"><path fill="#f8995c" d="M 8.699219 20.90625 L 42.886719 20.90625 L 42.886719 61.105469 L 8.699219 61.105469 Z M 8.699219 20.90625 " fill-opacity="1" fill-rule="nonzero"/></g></g><g clip-path="url(#1a5fac8b28)"><g clip-path="url(#d6b6767326)"><path fill="#0c1011" d="M 45.03125 35.484375 L 131.71875 35.484375 L 131.71875 57.964844 L 45.03125 57.964844 Z M 45.03125 35.484375 " fill-opacity="1" fill-rule="nonzero"/></g></g><g clip-path="url(#aa301c388c)"><g clip-path="url(#358178d24f)"><path fill="#0c1011" d="M 45.03125 35.484375 L 131.71875 35.484375 L 131.71875 57.964844 L 45.03125 57.964844 Z M 45.03125 35.484375 " fill-opacity="1" fill-rule="nonzero"/></g></g><g clip-path="url(#c0901bea76)"><g clip-path="url(#fbed90c011)"><path fill="#0c1011" d="M 45.03125 35.484375 L 131.71875 35.484375 L 131.71875 57.964844 L 45.03125 57.964844 Z M 45.03125 35.484375 " fill-opacity="1" fill-rule="nonzero"/></g></g><g clip-path="url(#bf402e9d76)"><g clip-path="url(#5034f9743f)"><path fill="#0c1011" d="M 45.03125 35.484375 L 131.71875 35.484375 L 131.71875 57.964844 L 45.03125 57.964844 Z M 45.03125 35.484375 " fill-opacity="1" fill-rule="nonzero"/></g></g><g clip-path="url(#50acd2cbc1)"><g clip-path="url(#a33aa6c327)"><path fill="#0c1011" d="M 45.03125 35.484375 L 131.71875 35.484375 L 131.71875 57.964844 L 45.03125 57.964844 Z M 45.03125 35.484375 " fill-opacity="1" fill-rule="nonzero"/></g></g><g clip-path="url(#ede4878048)"><g clip-path="url(#25fcc0fb12)"><path fill="#0c1011" d="M 45.03125 35.484375 L 131.71875 35.484375 L 131.71875 57.964844 L 45.03125 57.964844 Z M 45.03125 35.484375 " fill-opacity="1" fill-rule="nonzero"/></g></g><g clip-path="url(#5f949c9c53)"><path fill="#0c1011" d="M 45.03125 35.484375 L 131.71875 35.484375 L 131.71875 57.964844 L 45.03125 57.964844 Z M 45.03125 35.484375 " fill-opacity="1" fill-rule="nonzero"/></g><g clip-path="url(#92e272e814)"><g clip-path="url(#01ceb66280)"><path fill="#0c1011" d="M 45.03125 35.484375 L 131.71875 35.484375 L 131.71875 57.964844 L 45.03125 57.964844 Z M 45.03125 35.484375 " fill-opacity="1" fill-rule="nonzero"/></g></g><g clip-path="url(#7e3d693824)"><g clip-path="url(#9fe8f30f2f)"><path fill="#0c1011" d="M 132.355469 36.628906 L 156.308594 36.628906 L 156.308594 54.300781 L 132.355469 54.300781 Z M 132.355469 36.628906 " fill-opacity="1" fill-rule="nonzero"/></g></g><g clip-path="url(#a416a5b95f)"><g clip-path="url(#208105075e)"><path fill="#0c1011" d="M 132.355469 36.628906 L 156.308594 36.628906 L 156.308594 54.300781 L 132.355469 54.300781 Z M 132.355469 36.628906 " fill-opacity="1" fill-rule="nonzero"/></g></g></svg>